<svg width="42" height="42" viewBox="0 0 42 42" fill="none" xmlns="http://www.w3.org/2000/svg">
<g id="Group">
<g id="Group_2">
<g id="Group_3">
<g id="Group_4">
<path id="Vector" d="M21.2803 33.3137H20.6952C13.8506 33.3137 8 26.9417 8 19.8246V1.3025C8 0.612358 8.40509 0.181641 9.09586 0.181641H32.8509C33.5411 0.181641 34.2556 0.611732 34.2556 1.3025V19.8246C34.2562 26.9417 28.1105 33.3137 21.2803 33.3137ZM10.5012 2.68217V19.8246C10.5012 25.5083 15.2797 30.8132 20.6958 30.8132H21.281C26.6834 30.8132 31.7569 25.5083 31.7569 19.8246V2.68217H10.5012Z" fill="#292929"/>
</g>
</g>
<g id="Group_5">
<path id="Vector_2" d="M30.3791 41.8169H12.2503C11.5601 41.8169 11 41.2568 11 40.5667C11 39.8765 11.5601 39.3164 12.2503 39.3164H30.3791C31.0693 39.3164 31.6294 39.8765 31.6294 40.5667C31.6294 41.2568 31.0699 41.8169 30.3791 41.8169Z" fill="#292929"/>
</g>
<g id="Group_6">
<path id="Vector_3" d="M21.2503 41.6857C20.5601 41.6857 20 41.1256 20 40.4355V32.9339C20 32.2437 20.5601 31.6836 21.2503 31.6836C21.9404 31.6836 22.5005 32.2437 22.5005 32.9339V40.4355C22.5005 41.125 21.941 41.6857 21.2503 41.6857Z" fill="#292929"/>
</g>
<g id="Group_7">
<path id="Vector_4" d="M34.1487 22.1447C33.4586 22.1447 32.8984 21.5846 32.8984 20.8944C32.8984 20.2043 33.4586 19.6442 34.1487 19.6442C36.6274 19.6442 39.4942 13.1471 39.4942 8.90811C39.4942 8.26735 39.413 7.42405 39.0272 7.04897C38.5071 6.54511 37.1231 6.58699 35.6553 6.63138C35.1714 6.64575 34.6663 6.66138 34.1487 6.66138C33.4586 6.66138 32.8984 6.10126 32.8984 5.41112C32.8984 4.72097 33.4586 4.16085 34.1487 4.16085C34.6407 4.16085 35.1202 4.14647 35.5803 4.13209C37.5913 4.06958 39.4892 4.01332 40.7682 5.25421C41.5928 6.055 41.9948 7.24963 41.9948 8.90811C41.9948 13.4528 38.9385 22.1447 34.1487 22.1447Z" fill="#292929"/>
</g>
<g id="Group_8">
<path id="Vector_5" d="M7.84605 22.1447C3.05565 22.1447 0 13.4535 0 8.90811C0 7.25026 0.401336 6.05563 1.22651 5.25421C2.50616 4.01332 4.40719 4.06958 6.41449 4.13209C6.87459 4.14585 7.35407 4.16085 7.84605 4.16085C8.5362 4.16085 9.09632 4.72097 9.09632 5.41112C9.09632 6.10126 8.5362 6.66138 7.84605 6.66138C7.32781 6.66138 6.82333 6.64638 6.33885 6.63138C4.87292 6.58699 3.48824 6.54511 2.96751 7.04897C2.5818 7.42405 2.50053 8.26673 2.50053 8.90811C2.50053 13.1471 5.3674 19.6442 7.84605 19.6442C8.5362 19.6442 9.09632 20.2043 9.09632 20.8944C9.09632 21.5846 8.5362 22.1447 7.84605 22.1447Z" fill="#292929"/>
</g>
</g>
</g>
</svg>
