<svg width="746" height="726" viewBox="0 0 746 726" fill="none" xmlns="http://www.w3.org/2000/svg">
<path d="M430.66 210.03H554.127C553.663 116.733 481.718 55 366.606 55C253.583 55 173.747 115.805 174.443 206.316C174.211 280.582 225.733 321.892 309.978 339.995L357.323 350.206C410.237 361.81 428.339 375.039 428.803 396.622C428.339 420.062 406.988 436.54 365.677 436.54C316.244 436.54 287.002 413.332 284.913 369.701H162.375C162.839 488.99 243.603 542.369 367.534 542.369C487.984 542.369 560.161 490.383 560.625 396.622C560.161 324.213 516.994 273.388 412.094 250.876L373.104 242.521C328.08 233.006 307.889 219.777 309.05 197.033C309.282 176.146 326.688 160.829 366.606 160.829C408.38 160.829 428.107 179.163 430.66 210.03Z" fill="#DEDEDE"/>
<g filter="url(#filter0_f_2933_1148)">
<path d="M430.66 210.569H554.127C553.663 117.272 481.718 55.5391 366.606 55.5391C253.583 55.5391 173.747 116.344 174.443 206.856C174.211 281.121 225.733 322.432 309.978 340.534L357.323 350.745C410.237 362.349 428.339 375.578 428.803 397.161C428.339 420.602 406.988 437.079 365.677 437.079C316.244 437.079 287.002 413.871 284.913 370.24H162.375C162.839 489.529 243.603 542.908 367.534 542.908C487.984 542.908 560.161 490.922 560.625 397.161C560.161 324.752 516.994 273.927 412.094 251.415L373.104 243.06C328.08 233.545 307.889 220.316 309.05 197.572C309.282 176.685 326.688 161.368 366.606 161.368C408.38 161.368 428.107 179.702 430.66 210.569Z" fill="#686767"/>
</g>
<g filter="url(#filter1_f_2933_1148)">
<path d="M430.66 246.338H554.127C553.663 153.042 481.718 91.3086 366.606 91.3086C253.583 91.3086 173.747 152.114 174.443 242.625C174.211 316.891 225.733 358.201 309.978 376.303L357.323 386.515C410.237 398.119 428.339 411.348 428.803 432.931C428.339 456.371 406.988 472.849 365.677 472.849C316.244 472.849 287.002 449.641 284.913 406.01H162.375C162.839 525.299 243.603 578.678 367.534 578.678C487.984 578.678 560.161 526.691 560.625 432.931C560.161 360.522 516.994 309.696 412.094 287.184L373.104 278.83C328.08 269.314 307.889 256.086 309.05 233.342C309.282 212.455 326.688 197.137 366.606 197.137C408.38 197.137 428.107 215.472 430.66 246.338Z" fill="url(#paint0_linear_2933_1148)"/>
</g>
<g filter="url(#filter2_f_2933_1148)">
<path d="M445.111 382.458C444.534 351.873 422.028 333.127 356.241 316.684H562.44C562.44 316.684 608.867 358.88 609 382.458C608.423 515.324 518.688 588.991 368.937 588.991C214.858 588.991 100.241 507.047 147.938 344.309H266.218C268.814 406.137 305.17 439.025 366.629 439.025C417.988 439.025 444.534 415.675 445.111 382.458Z" fill="url(#paint1_radial_2933_1148)"/>
</g>
<g style="mix-blend-mode:lighten">
<g filter="url(#filter3_f_2933_1148)">
<path d="M439.534 411.041C439.021 387.215 419.037 372.611 360.623 359.801L280.688 381.322C282.993 429.488 315.275 455.108 369.846 455.108C415.451 455.108 439.021 436.918 439.534 411.041Z" fill="url(#paint2_radial_2933_1148)"/>
</g>
<g filter="url(#filter4_f_2933_1148)">
<path d="M439.534 411.041C439.021 387.215 419.037 372.611 360.623 359.801L280.688 381.322C282.993 429.488 315.275 455.108 369.846 455.108C415.451 455.108 439.021 436.918 439.534 411.041Z" fill="url(#paint3_radial_2933_1148)"/>
</g>
<g opacity="0.89" filter="url(#filter5_f_2933_1148)">
<path d="M439.534 367.204C439.021 343.377 419.037 328.773 360.623 315.963L280.688 337.484C282.993 385.65 315.275 411.271 369.846 411.271C415.451 411.271 439.021 393.08 439.534 367.204Z" fill="url(#paint4_radial_2933_1148)"/>
</g>
<g opacity="0.89" filter="url(#filter6_f_2933_1148)">
<path d="M439.534 367.204C439.021 343.377 419.037 328.773 360.623 315.963L280.688 337.484C282.993 385.65 315.275 411.271 369.846 411.271C415.451 411.271 439.021 393.08 439.534 367.204Z" fill="url(#paint5_radial_2933_1148)"/>
</g>
<g filter="url(#filter7_f_2933_1148)">
<path d="M305.7 218.491C304.423 243.762 326.644 258.46 376.192 269.033L439.533 232.932C436.724 198.635 415.014 178.264 369.041 178.264C325.111 178.264 305.956 195.283 305.7 218.491Z" fill="url(#paint6_radial_2933_1148)"/>
</g>
<g filter="url(#filter8_f_2933_1148)">
<path d="M305.7 227.875C304.423 248.092 326.644 259.851 376.192 268.309L439.533 239.428C436.724 211.991 415.014 195.693 369.041 195.693C325.111 195.693 305.956 209.309 305.7 227.875Z" fill="url(#paint7_radial_2933_1148)"/>
</g>
<g opacity="0.89" filter="url(#filter9_f_2933_1148)">
<path d="M298.901 181.718C297.494 205.725 321.974 219.689 376.562 229.733L446.344 195.436C443.249 162.855 419.331 143.502 368.683 143.502C320.286 143.502 299.182 159.67 298.901 181.718Z" fill="url(#paint8_radial_2933_1148)"/>
</g>
<g opacity="0.89" filter="url(#filter10_f_2933_1148)">
<path d="M298.901 181.718C297.494 205.725 321.974 219.689 376.562 229.733L446.344 195.436C443.249 162.855 419.331 143.502 368.683 143.502C320.286 143.502 299.182 159.67 298.901 181.718Z" fill="url(#paint9_radial_2933_1148)"/>
</g>
</g>
<defs>
<filter id="filter0_f_2933_1148" x="153.298" y="46.4621" width="416.404" height="505.523" filterUnits="userSpaceOnUse" color-interpolation-filters="sRGB">
<feFlood flood-opacity="0" result="BackgroundImageFix"/>
<feBlend mode="normal" in="SourceGraphic" in2="BackgroundImageFix" result="shape"/>
<feGaussianBlur stdDeviation="4.53846" result="effect1_foregroundBlur_2933_1148"/>
</filter>
<filter id="filter1_f_2933_1148" x="71.6058" y="0.53936" width="579.788" height="668.908" filterUnits="userSpaceOnUse" color-interpolation-filters="sRGB">
<feFlood flood-opacity="0" result="BackgroundImageFix"/>
<feBlend mode="normal" in="SourceGraphic" in2="BackgroundImageFix" result="shape"/>
<feGaussianBlur stdDeviation="45.3846" result="effect1_foregroundBlur_2933_1148"/>
</filter>
<filter id="filter2_f_2933_1148" x="0.846146" y="180.53" width="744.308" height="544.615" filterUnits="userSpaceOnUse" color-interpolation-filters="sRGB">
<feFlood flood-opacity="0" result="BackgroundImageFix"/>
<feBlend mode="normal" in="SourceGraphic" in2="BackgroundImageFix" result="shape"/>
<feGaussianBlur stdDeviation="68.0769" result="effect1_foregroundBlur_2933_1148"/>
</filter>
<filter id="filter3_f_2933_1148" x="233.418" y="312.531" width="253.383" height="189.847" filterUnits="userSpaceOnUse" color-interpolation-filters="sRGB">
<feFlood flood-opacity="0" result="BackgroundImageFix"/>
<feBlend mode="normal" in="SourceGraphic" in2="BackgroundImageFix" result="shape"/>
<feGaussianBlur stdDeviation="23.6349" result="effect1_foregroundBlur_2933_1148"/>
</filter>
<filter id="filter4_f_2933_1148" x="233.418" y="312.531" width="253.383" height="189.847" filterUnits="userSpaceOnUse" color-interpolation-filters="sRGB">
<feFlood flood-opacity="0" result="BackgroundImageFix"/>
<feBlend mode="normal" in="SourceGraphic" in2="BackgroundImageFix" result="shape"/>
<feGaussianBlur stdDeviation="23.6349" result="effect1_foregroundBlur_2933_1148"/>
</filter>
<filter id="filter5_f_2933_1148" x="233.418" y="268.693" width="253.383" height="189.847" filterUnits="userSpaceOnUse" color-interpolation-filters="sRGB">
<feFlood flood-opacity="0" result="BackgroundImageFix"/>
<feBlend mode="normal" in="SourceGraphic" in2="BackgroundImageFix" result="shape"/>
<feGaussianBlur stdDeviation="23.6349" result="effect1_foregroundBlur_2933_1148"/>
</filter>
<filter id="filter6_f_2933_1148" x="233.418" y="268.693" width="253.383" height="189.847" filterUnits="userSpaceOnUse" color-interpolation-filters="sRGB">
<feFlood flood-opacity="0" result="BackgroundImageFix"/>
<feBlend mode="normal" in="SourceGraphic" in2="BackgroundImageFix" result="shape"/>
<feGaussianBlur stdDeviation="23.6349" result="effect1_foregroundBlur_2933_1148"/>
</filter>
<filter id="filter7_f_2933_1148" x="258.379" y="130.994" width="228.423" height="185.309" filterUnits="userSpaceOnUse" color-interpolation-filters="sRGB">
<feFlood flood-opacity="0" result="BackgroundImageFix"/>
<feBlend mode="normal" in="SourceGraphic" in2="BackgroundImageFix" result="shape"/>
<feGaussianBlur stdDeviation="23.6349" result="effect1_foregroundBlur_2933_1148"/>
</filter>
<filter id="filter8_f_2933_1148" x="258.379" y="148.424" width="228.423" height="167.155" filterUnits="userSpaceOnUse" color-interpolation-filters="sRGB">
<feFlood flood-opacity="0" result="BackgroundImageFix"/>
<feBlend mode="normal" in="SourceGraphic" in2="BackgroundImageFix" result="shape"/>
<feGaussianBlur stdDeviation="23.6349" result="effect1_foregroundBlur_2933_1148"/>
</filter>
<filter id="filter9_f_2933_1148" x="251.574" y="96.2321" width="242.04" height="180.77" filterUnits="userSpaceOnUse" color-interpolation-filters="sRGB">
<feFlood flood-opacity="0" result="BackgroundImageFix"/>
<feBlend mode="normal" in="SourceGraphic" in2="BackgroundImageFix" result="shape"/>
<feGaussianBlur stdDeviation="23.6349" result="effect1_foregroundBlur_2933_1148"/>
</filter>
<filter id="filter10_f_2933_1148" x="251.574" y="96.2321" width="242.04" height="180.77" filterUnits="userSpaceOnUse" color-interpolation-filters="sRGB">
<feFlood flood-opacity="0" result="BackgroundImageFix"/>
<feBlend mode="normal" in="SourceGraphic" in2="BackgroundImageFix" result="shape"/>
<feGaussianBlur stdDeviation="23.6349" result="effect1_foregroundBlur_2933_1148"/>
</filter>
<linearGradient id="paint0_linear_2933_1148" x1="361.004" y1="328.039" x2="361.5" y2="578.678" gradientUnits="userSpaceOnUse">
<stop stop-color="#141414"/>
<stop offset="1" stop-color="#0011B1"/>
</linearGradient>
<radialGradient id="paint1_radial_2933_1148" cx="0" cy="0" r="1" gradientUnits="userSpaceOnUse" gradientTransform="translate(370.912 310.009) rotate(90) scale(278.982 392.853)">
<stop offset="0.479167" stop-color="#282828"/>
<stop offset="0.729167" stop-color="#001AFF"/>
<stop offset="0.84375" stop-color="#00A3FF"/>
<stop offset="1" stop-color="#00FFC2" stop-opacity="0"/>
</radialGradient>
<radialGradient id="paint2_radial_2933_1148" cx="0" cy="0" r="1" gradientUnits="userSpaceOnUse" gradientTransform="translate(359.685 381.645) rotate(90.4443) scale(73.9881 156.514)">
<stop stop-color="white" stop-opacity="0"/>
<stop offset="0.572917" stop-color="#8892C5"/>
<stop offset="0.786458" stop-color="#9D36E2"/>
<stop offset="1" stop-color="#6B098A"/>
</radialGradient>
<radialGradient id="paint3_radial_2933_1148" cx="0" cy="0" r="1" gradientUnits="userSpaceOnUse" gradientTransform="translate(359.685 381.645) rotate(90.4443) scale(73.9881 156.514)">
<stop stop-color="white" stop-opacity="0"/>
<stop offset="0.572917" stop-color="#8892C5"/>
<stop offset="0.786458" stop-color="#9D36E2"/>
<stop offset="1" stop-color="#6B098A"/>
</radialGradient>
<radialGradient id="paint4_radial_2933_1148" cx="0" cy="0" r="1" gradientUnits="userSpaceOnUse" gradientTransform="translate(359.685 389.185) rotate(-90.5109) scale(64.3503 148.699)">
<stop offset="0.296875" stop-color="white" stop-opacity="0.77"/>
<stop offset="0.5625" stop-color="#06FFC3"/>
<stop offset="0.71875" stop-color="#55E3BA"/>
<stop offset="0.880208" stop-color="#55E3BA"/>
<stop offset="1" stop-color="#1AC593"/>
</radialGradient>
<radialGradient id="paint5_radial_2933_1148" cx="0" cy="0" r="1" gradientUnits="userSpaceOnUse" gradientTransform="translate(359.685 389.185) rotate(-90.5109) scale(64.3503 148.699)">
<stop offset="0.296875" stop-color="white" stop-opacity="0.77"/>
<stop offset="0.5625" stop-color="#06FFC3"/>
<stop offset="0.71875" stop-color="#55E3BA"/>
<stop offset="0.880208" stop-color="#55E3BA"/>
<stop offset="1" stop-color="#1AC593"/>
</radialGradient>
<radialGradient id="paint6_radial_2933_1148" cx="0" cy="0" r="1" gradientUnits="userSpaceOnUse" gradientTransform="translate(372.232 199.067) rotate(90.3932) scale(70.4644 131.92)">
<stop offset="0.302083" stop-color="white"/>
<stop offset="0.572917" stop-color="#8892C5"/>
<stop offset="0.786458" stop-color="#9D36E2"/>
<stop offset="1" stop-color="#6B098A"/>
</radialGradient>
<radialGradient id="paint7_radial_2933_1148" cx="0" cy="0" r="1" gradientUnits="userSpaceOnUse" gradientTransform="translate(372.232 212.336) rotate(90.4915) scale(56.3722 131.918)">
<stop stop-color="white" stop-opacity="0"/>
<stop offset="0.572917" stop-color="#8892C5"/>
<stop offset="0.786458" stop-color="#9D36E2"/>
<stop offset="1" stop-color="#6B098A"/>
</radialGradient>
<radialGradient id="paint8_radial_2933_1148" cx="0" cy="0" r="1" gradientUnits="userSpaceOnUse" gradientTransform="translate(372.199 209.751) rotate(-90.5243) scale(58.2218 138.078)">
<stop offset="0.260417" stop-color="white" stop-opacity="0.77"/>
<stop offset="0.463542" stop-color="#06FFC3"/>
<stop offset="0.630208" stop-color="#55E3BA"/>
<stop offset="0.828125" stop-color="#55E3BA"/>
<stop offset="1" stop-color="#1AC593"/>
</radialGradient>
<radialGradient id="paint9_radial_2933_1148" cx="0" cy="0" r="1" gradientUnits="userSpaceOnUse" gradientTransform="translate(372.199 209.751) rotate(-90.5243) scale(58.2218 138.078)">
<stop offset="0.260417" stop-color="white" stop-opacity="0.77"/>
<stop offset="0.463542" stop-color="#06FFC3"/>
<stop offset="0.630208" stop-color="#55E3BA"/>
<stop offset="0.828125" stop-color="#55E3BA"/>
<stop offset="1" stop-color="#1AC593"/>
</radialGradient>
</defs>
</svg>
