<svg width="1920" height="879" viewBox="0 0 1920 879" fill="none" xmlns="http://www.w3.org/2000/svg">
<rect width="1920" height="849" fill="#1F1F1F"/>
<line x1="1094.5" y1="297.5" x2="1094.5" y2="845.5" stroke="url(#paint0_linear_2933_1162)" stroke-linecap="round"/>
<line x1="960.5" y1="297.5" x2="960.5" y2="845.5" stroke="url(#paint1_linear_2933_1162)" stroke-linecap="round"/>
<line x1="420.5" y1="297.5" x2="420.5" y2="845.5" stroke="url(#paint2_linear_2933_1162)" stroke-linecap="round"/>
<line x1="1240.5" y1="297.5" x2="1240.5" y2="845.5" stroke="url(#paint3_linear_2933_1162)" stroke-linecap="round"/>
<line x1="1387.5" y1="297.5" x2="1387.5" y2="845.5" stroke="url(#paint4_linear_2933_1162)" stroke-linecap="round"/>
<line x1="1533.5" y1="297.5" x2="1533.5" y2="845.5" stroke="url(#paint5_linear_2933_1162)" stroke-linecap="round"/>
<line x1="155.5" y1="479.5" x2="155.5" y2="845.5" stroke="url(#paint6_linear_2933_1162)" stroke-linecap="round"/>
<line x1="1680.5" y1="297.5" x2="1680.5" y2="845.5" stroke="url(#paint7_linear_2933_1162)" stroke-linecap="round"/>
<line x1="1826.5" y1="245.5" x2="1826.5" y2="845.5" stroke="url(#paint8_linear_2933_1162)" stroke-linecap="round"/>
<path d="M1233.59 474.037C1187.6 437.572 1128.98 396.663 1076.5 377C852.988 293.25 712 496 477 496C341.531 496 271.5 627.5 136 627.5C0.5 627.5 -161 528 -161 528L-6 877H1973L1976.5 290.5C1976.5 290.5 1881.68 307.775 1827 334.5C1800.21 347.596 1770.55 369.074 1744.93 389.807C1704.43 422.579 1648.64 432.409 1601.7 409.82C1559.87 389.69 1510.27 394.805 1473.43 423.047L1400.5 478.958C1351.36 516.624 1282.1 512.5 1233.59 474.037Z" fill="url(#paint9_linear_2933_1162)"/>
<path d="M1233.59 474.037C1187.6 437.572 1128.98 396.663 1076.5 377C852.988 293.25 712 496 477 496C341.531 496 271.5 627.5 136 627.5C0.5 627.5 -161 528 -161 528L-6 877H1973L1976.5 290.5C1976.5 290.5 1881.68 307.775 1827 334.5C1800.21 347.596 1770.55 369.074 1744.93 389.807C1704.43 422.579 1648.64 432.409 1601.7 409.82C1559.87 389.69 1510.27 394.805 1473.43 423.047L1400.5 478.958C1351.36 516.624 1282.1 512.5 1233.59 474.037Z" stroke="url(#paint10_linear_2933_1162)" stroke-width="4" stroke-linecap="round"/>
<g style="mix-blend-mode:color-dodge" clip-path="url(#clip0_2933_1162)">
<path d="M960.825 404.959C987.79 404.959 1009.65 383.03 1009.65 355.98C1009.65 328.929 987.79 307 960.825 307C933.86 307 912 328.929 912 355.98C912 383.03 933.86 404.959 960.825 404.959Z" fill="url(#paint11_radial_2933_1162)" fill-opacity="0.56"/>
</g>
<g style="mix-blend-mode:color-dodge" clip-path="url(#clip1_2933_1162)">
<path d="M419.825 547.959C446.79 547.959 468.65 526.03 468.65 498.98C468.65 471.929 446.79 450 419.825 450C392.86 450 371 471.929 371 498.98C371 526.03 392.86 547.959 419.825 547.959Z" fill="url(#paint12_radial_2933_1162)" fill-opacity="0.56"/>
</g>
<g style="mix-blend-mode:color-dodge" clip-path="url(#clip2_2933_1162)">
<path d="M1387.12 528.194C1414.09 528.194 1435.95 506.265 1435.95 479.214C1435.95 452.163 1414.09 430.234 1387.12 430.234C1360.16 430.234 1338.3 452.163 1338.3 479.214C1338.3 506.265 1360.16 528.194 1387.12 528.194Z" fill="url(#paint13_radial_2933_1162)" fill-opacity="0.56"/>
</g>
<g style="mix-blend-mode:color-dodge" clip-path="url(#clip3_2933_1162)">
<path d="M1533.83 439.959C1560.79 439.959 1582.65 418.03 1582.65 390.98C1582.65 363.929 1560.79 342 1533.83 342C1506.86 342 1485 363.929 1485 390.98C1485 418.03 1506.86 439.959 1533.83 439.959Z" fill="url(#paint14_radial_2933_1162)" fill-opacity="0.56"/>
</g>
<g style="mix-blend-mode:color-dodge" clip-path="url(#clip4_2933_1162)">
<g filter="url(#filter0_f_2933_1162)">
<path d="M155.059 676.959C182.025 676.959 203.885 655.03 203.885 627.98C203.885 600.929 182.025 579 155.059 579C128.094 579 106.234 600.929 106.234 627.98C106.234 655.03 128.094 676.959 155.059 676.959Z" fill="url(#paint15_radial_2933_1162)"/>
</g>
</g>
<g style="mix-blend-mode:color-dodge" clip-path="url(#clip5_2933_1162)">
<g filter="url(#filter1_f_2933_1162)">
<path d="M1679.83 470.959C1706.79 470.959 1728.65 449.03 1728.65 421.98C1728.65 394.929 1706.79 373 1679.83 373C1652.86 373 1631 394.929 1631 421.98C1631 449.03 1652.86 470.959 1679.83 470.959Z" fill="url(#paint16_radial_2933_1162)"/>
</g>
</g>
<g style="mix-blend-mode:color-dodge" clip-path="url(#clip6_2933_1162)">
<g filter="url(#filter2_f_2933_1162)">
<path d="M1825.83 383.959C1852.79 383.959 1874.65 362.03 1874.65 334.98C1874.65 307.929 1852.79 286 1825.83 286C1798.86 286 1777 307.929 1777 334.98C1777 362.03 1798.86 383.959 1825.83 383.959Z" fill="url(#paint17_radial_2933_1162)"/>
</g>
</g>
<defs>
<filter id="filter0_f_2933_1162" x="95.2344" y="568" width="119.648" height="119.959" filterUnits="userSpaceOnUse" color-interpolation-filters="sRGB">
<feFlood flood-opacity="0" result="BackgroundImageFix"/>
<feBlend mode="normal" in="SourceGraphic" in2="BackgroundImageFix" result="shape"/>
<feGaussianBlur stdDeviation="5.5" result="effect1_foregroundBlur_2933_1162"/>
</filter>
<filter id="filter1_f_2933_1162" x="1620" y="362" width="119.648" height="119.959" filterUnits="userSpaceOnUse" color-interpolation-filters="sRGB">
<feFlood flood-opacity="0" result="BackgroundImageFix"/>
<feBlend mode="normal" in="SourceGraphic" in2="BackgroundImageFix" result="shape"/>
<feGaussianBlur stdDeviation="5.5" result="effect1_foregroundBlur_2933_1162"/>
</filter>
<filter id="filter2_f_2933_1162" x="1766" y="275" width="119.648" height="119.959" filterUnits="userSpaceOnUse" color-interpolation-filters="sRGB">
<feFlood flood-opacity="0" result="BackgroundImageFix"/>
<feBlend mode="normal" in="SourceGraphic" in2="BackgroundImageFix" result="shape"/>
<feGaussianBlur stdDeviation="5.5" result="effect1_foregroundBlur_2933_1162"/>
</filter>
<linearGradient id="paint0_linear_2933_1162" x1="1094" y1="279.5" x2="1094" y2="919.5" gradientUnits="userSpaceOnUse">
<stop stop-color="#2D2D2D"/>
<stop offset="1" stop-color="#2D2D2D" stop-opacity="0"/>
</linearGradient>
<linearGradient id="paint1_linear_2933_1162" x1="960" y1="279.5" x2="960.002" y2="919.5" gradientUnits="userSpaceOnUse">
<stop stop-color="#2D2D2D"/>
<stop offset="1" stop-color="#2D2D2D" stop-opacity="0"/>
</linearGradient>
<linearGradient id="paint2_linear_2933_1162" x1="420" y1="279.5" x2="420.002" y2="919.5" gradientUnits="userSpaceOnUse">
<stop stop-color="#2D2D2D"/>
<stop offset="1" stop-color="#2D2D2D" stop-opacity="0"/>
</linearGradient>
<linearGradient id="paint3_linear_2933_1162" x1="1240" y1="279.5" x2="1240" y2="919.5" gradientUnits="userSpaceOnUse">
<stop stop-color="#2D2D2D"/>
<stop offset="1" stop-color="#2D2D2D" stop-opacity="0"/>
</linearGradient>
<linearGradient id="paint4_linear_2933_1162" x1="1387" y1="279.5" x2="1387" y2="919.5" gradientUnits="userSpaceOnUse">
<stop stop-color="#2D2D2D"/>
<stop offset="1" stop-color="#2D2D2D" stop-opacity="0"/>
</linearGradient>
<linearGradient id="paint5_linear_2933_1162" x1="1533" y1="279.5" x2="1533" y2="919.5" gradientUnits="userSpaceOnUse">
<stop stop-color="#2D2D2D"/>
<stop offset="1" stop-color="#2D2D2D" stop-opacity="0"/>
</linearGradient>
<linearGradient id="paint6_linear_2933_1162" x1="155" y1="467.301" x2="155.001" y2="895.134" gradientUnits="userSpaceOnUse">
<stop stop-color="#2D2D2D"/>
<stop offset="1" stop-color="#2D2D2D" stop-opacity="0"/>
</linearGradient>
<linearGradient id="paint7_linear_2933_1162" x1="1680" y1="279.5" x2="1680" y2="919.5" gradientUnits="userSpaceOnUse">
<stop stop-color="#2D2D2D"/>
<stop offset="1" stop-color="#2D2D2D" stop-opacity="0"/>
</linearGradient>
<linearGradient id="paint8_linear_2933_1162" x1="1826" y1="225.842" x2="1826" y2="926.462" gradientUnits="userSpaceOnUse">
<stop stop-color="#2D2D2D"/>
<stop offset="1" stop-color="#2D2D2D" stop-opacity="0"/>
</linearGradient>
<linearGradient id="paint9_linear_2933_1162" x1="1533.5" y1="328" x2="1534" y2="832" gradientUnits="userSpaceOnUse">
<stop stop-color="#00422A" stop-opacity="0.42"/>
<stop offset="1" stop-color="#55E3BA" stop-opacity="0"/>
</linearGradient>
<linearGradient id="paint10_linear_2933_1162" x1="908.967" y1="351.977" x2="908.967" y2="812.499" gradientUnits="userSpaceOnUse">
<stop stop-color="#55E3BA"/>
<stop offset="1" stop-color="#55E3BA" stop-opacity="0"/>
</linearGradient>
<radialGradient id="paint11_radial_2933_1162" cx="0" cy="0" r="1" gradientUnits="userSpaceOnUse" gradientTransform="translate(960.828 355.982) scale(48.8279 48.9824)">
<stop stop-color="#CACACA"/>
<stop offset="0.0341" stop-color="#BCBCBC"/>
<stop offset="0.165" stop-color="#8A8A8A"/>
<stop offset="0.2991" stop-color="#606060"/>
<stop offset="0.4342" stop-color="#3D3D3D"/>
<stop offset="0.5707" stop-color="#222222"/>
<stop offset="0.7091" stop-color="#0F0F0F"/>
<stop offset="0.8507" stop-color="#040404"/>
<stop offset="1"/>
</radialGradient>
<radialGradient id="paint12_radial_2933_1162" cx="0" cy="0" r="1" gradientUnits="userSpaceOnUse" gradientTransform="translate(419.828 498.982) scale(48.8279 48.9824)">
<stop stop-color="#CACACA"/>
<stop offset="0.0341" stop-color="#BCBCBC"/>
<stop offset="0.165" stop-color="#8A8A8A"/>
<stop offset="0.2991" stop-color="#606060"/>
<stop offset="0.4342" stop-color="#3D3D3D"/>
<stop offset="0.5707" stop-color="#222222"/>
<stop offset="0.7091" stop-color="#0F0F0F"/>
<stop offset="0.8507" stop-color="#040404"/>
<stop offset="1"/>
</radialGradient>
<radialGradient id="paint13_radial_2933_1162" cx="0" cy="0" r="1" gradientUnits="userSpaceOnUse" gradientTransform="translate(1387.12 479.217) scale(48.8279 48.9824)">
<stop stop-color="#CACACA"/>
<stop offset="0.0341" stop-color="#BCBCBC"/>
<stop offset="0.165" stop-color="#8A8A8A"/>
<stop offset="0.2991" stop-color="#606060"/>
<stop offset="0.4342" stop-color="#3D3D3D"/>
<stop offset="0.5707" stop-color="#222222"/>
<stop offset="0.7091" stop-color="#0F0F0F"/>
<stop offset="0.8507" stop-color="#040404"/>
<stop offset="1"/>
</radialGradient>
<radialGradient id="paint14_radial_2933_1162" cx="0" cy="0" r="1" gradientUnits="userSpaceOnUse" gradientTransform="translate(1533.83 390.982) scale(48.8279 48.9824)">
<stop stop-color="#CACACA"/>
<stop offset="0.0341" stop-color="#BCBCBC"/>
<stop offset="0.165" stop-color="#8A8A8A"/>
<stop offset="0.2991" stop-color="#606060"/>
<stop offset="0.4342" stop-color="#3D3D3D"/>
<stop offset="0.5707" stop-color="#222222"/>
<stop offset="0.7091" stop-color="#0F0F0F"/>
<stop offset="0.8507" stop-color="#040404"/>
<stop offset="1"/>
</radialGradient>
<radialGradient id="paint15_radial_2933_1162" cx="0" cy="0" r="1" gradientUnits="userSpaceOnUse" gradientTransform="translate(155.062 627.982) scale(48.8279 48.9824)">
<stop stop-color="#CACACA"/>
<stop offset="0.0341" stop-color="#BCBCBC"/>
<stop offset="0.165" stop-color="#8A8A8A"/>
<stop offset="0.2991" stop-color="#606060"/>
<stop offset="0.4342" stop-color="#3D3D3D"/>
<stop offset="0.5707" stop-color="#222222"/>
<stop offset="0.7091" stop-color="#0F0F0F"/>
<stop offset="0.8507" stop-color="#040404"/>
<stop offset="1"/>
</radialGradient>
<radialGradient id="paint16_radial_2933_1162" cx="0" cy="0" r="1" gradientUnits="userSpaceOnUse" gradientTransform="translate(1679.83 421.982) scale(48.8279 48.9824)">
<stop stop-color="#CACACA"/>
<stop offset="0.0341" stop-color="#BCBCBC"/>
<stop offset="0.165" stop-color="#8A8A8A"/>
<stop offset="0.2991" stop-color="#606060"/>
<stop offset="0.4342" stop-color="#3D3D3D"/>
<stop offset="0.5707" stop-color="#222222"/>
<stop offset="0.7091" stop-color="#0F0F0F"/>
<stop offset="0.8507" stop-color="#040404"/>
<stop offset="1"/>
</radialGradient>
<radialGradient id="paint17_radial_2933_1162" cx="0" cy="0" r="1" gradientUnits="userSpaceOnUse" gradientTransform="translate(1825.83 334.982) scale(48.8279 48.9824)">
<stop stop-color="#CACACA"/>
<stop offset="0.0341" stop-color="#BCBCBC"/>
<stop offset="0.165" stop-color="#8A8A8A"/>
<stop offset="0.2991" stop-color="#606060"/>
<stop offset="0.4342" stop-color="#3D3D3D"/>
<stop offset="0.5707" stop-color="#222222"/>
<stop offset="0.7091" stop-color="#0F0F0F"/>
<stop offset="0.8507" stop-color="#040404"/>
<stop offset="1"/>
</radialGradient>
<clipPath id="clip0_2933_1162">
<rect width="97.6502" height="97.9592" fill="white" transform="translate(912 307)"/>
</clipPath>
<clipPath id="clip1_2933_1162">
<rect width="97.6502" height="97.9592" fill="white" transform="translate(371 450)"/>
</clipPath>
<clipPath id="clip2_2933_1162">
<rect width="97.6502" height="97.9592" fill="white" transform="translate(1338.3 430.234)"/>
</clipPath>
<clipPath id="clip3_2933_1162">
<rect width="97.6502" height="97.9592" fill="white" transform="translate(1484.77 342.479)"/>
</clipPath>
<clipPath id="clip4_2933_1162">
<rect width="97.6502" height="97.9592" fill="white" transform="translate(106 571)"/>
</clipPath>
<clipPath id="clip5_2933_1162">
<rect width="97.6502" height="97.9592" fill="white" transform="translate(1631.24 366.847)"/>
</clipPath>
<clipPath id="clip6_2933_1162">
<rect width="97" height="114" fill="white" transform="translate(1778 292)"/>
</clipPath>
</defs>
</svg>
