<svg width="1920" height="634" viewBox="0 0 1920 634" fill="none" xmlns="http://www.w3.org/2000/svg">
<line x1="1094.5" y1="52.5" x2="1094.5" y2="600.5" stroke="url(#paint0_linear_2933_1164)" stroke-linecap="round"/>
<line x1="960.5" y1="52.5" x2="960.5" y2="600.5" stroke="url(#paint1_linear_2933_1164)" stroke-linecap="round"/>
<line x1="420.5" y1="52.5" x2="420.5" y2="600.5" stroke="url(#paint2_linear_2933_1164)" stroke-linecap="round"/>
<line x1="1240.5" y1="52.5" x2="1240.5" y2="600.5" stroke="url(#paint3_linear_2933_1164)" stroke-linecap="round"/>
<line x1="1387.5" y1="52.5" x2="1387.5" y2="600.5" stroke="url(#paint4_linear_2933_1164)" stroke-linecap="round"/>
<line x1="1533.5" y1="52.5" x2="1533.5" y2="600.5" stroke="url(#paint5_linear_2933_1164)" stroke-linecap="round"/>
<line x1="155.5" y1="234.5" x2="155.5" y2="600.5" stroke="url(#paint6_linear_2933_1164)" stroke-linecap="round"/>
<line x1="1680.5" y1="52.5" x2="1680.5" y2="600.5" stroke="url(#paint7_linear_2933_1164)" stroke-linecap="round"/>
<line x1="1826.5" y1="0.5" x2="1826.5" y2="600.5" stroke="url(#paint8_linear_2933_1164)" stroke-linecap="round"/>
<path d="M1233.59 229.037C1187.6 192.572 1128.98 151.663 1076.5 132C852.988 48.2498 712 251 477 251C341.531 251 271.5 382.5 136 382.5C0.5 382.5 -161 283 -161 283L-6 632H1973L1976.5 45.5C1976.5 45.5 1881.68 62.7752 1827 89.5C1800.21 102.596 1770.55 124.074 1744.93 144.807C1704.43 177.579 1648.64 187.409 1601.7 164.82C1559.87 144.69 1510.27 149.805 1473.43 178.047L1400.5 233.958C1351.36 271.624 1282.1 267.5 1233.59 229.037Z" fill="url(#paint9_linear_2933_1164)"/>
<path d="M1233.59 229.037C1187.6 192.572 1128.98 151.663 1076.5 132C852.988 48.2498 712 251 477 251C341.531 251 271.5 382.5 136 382.5C0.5 382.5 -161 283 -161 283L-6 632H1973L1976.5 45.5C1976.5 45.5 1881.68 62.7752 1827 89.5C1800.21 102.596 1770.55 124.074 1744.93 144.807C1704.43 177.579 1648.64 187.409 1601.7 164.82C1559.87 144.69 1510.27 149.805 1473.43 178.047L1400.5 233.958C1351.36 271.624 1282.1 267.5 1233.59 229.037Z" stroke="url(#paint10_linear_2933_1164)" stroke-width="4" stroke-linecap="round"/>
<g style="mix-blend-mode:color-dodge" clip-path="url(#clip0_2933_1164)">
<path d="M960.825 159.959C987.79 159.959 1009.65 138.03 1009.65 110.98C1009.65 83.9289 987.79 62 960.825 62C933.86 62 912 83.9289 912 110.98C912 138.03 933.86 159.959 960.825 159.959Z" fill="url(#paint11_radial_2933_1164)" fill-opacity="0.56"/>
</g>
<g style="mix-blend-mode:color-dodge" clip-path="url(#clip1_2933_1164)">
<path d="M419.825 302.959C446.79 302.959 468.65 281.03 468.65 253.98C468.65 226.929 446.79 205 419.825 205C392.86 205 371 226.929 371 253.98C371 281.03 392.86 302.959 419.825 302.959Z" fill="url(#paint12_radial_2933_1164)" fill-opacity="0.56"/>
</g>
<g style="mix-blend-mode:color-dodge" clip-path="url(#clip2_2933_1164)">
<path d="M1387.12 283.194C1414.09 283.194 1435.95 261.265 1435.95 234.214C1435.95 207.163 1414.09 185.234 1387.12 185.234C1360.16 185.234 1338.3 207.163 1338.3 234.214C1338.3 261.265 1360.16 283.194 1387.12 283.194Z" fill="url(#paint13_radial_2933_1164)" fill-opacity="0.56"/>
</g>
<g style="mix-blend-mode:color-dodge" clip-path="url(#clip3_2933_1164)">
<path d="M1533.83 194.959C1560.79 194.959 1582.65 173.03 1582.65 145.98C1582.65 118.929 1560.79 97 1533.83 97C1506.86 97 1485 118.929 1485 145.98C1485 173.03 1506.86 194.959 1533.83 194.959Z" fill="url(#paint14_radial_2933_1164)" fill-opacity="0.56"/>
</g>
<g style="mix-blend-mode:color-dodge" clip-path="url(#clip4_2933_1164)">
<g filter="url(#filter0_f_2933_1164)">
<path d="M155.059 431.959C182.025 431.959 203.885 410.03 203.885 382.98C203.885 355.929 182.025 334 155.059 334C128.094 334 106.234 355.929 106.234 382.98C106.234 410.03 128.094 431.959 155.059 431.959Z" fill="url(#paint15_radial_2933_1164)"/>
</g>
</g>
<g style="mix-blend-mode:color-dodge" clip-path="url(#clip5_2933_1164)">
<g filter="url(#filter1_f_2933_1164)">
<path d="M1679.83 225.959C1706.79 225.959 1728.65 204.03 1728.65 176.98C1728.65 149.929 1706.79 128 1679.83 128C1652.86 128 1631 149.929 1631 176.98C1631 204.03 1652.86 225.959 1679.83 225.959Z" fill="url(#paint16_radial_2933_1164)"/>
</g>
</g>
<g style="mix-blend-mode:color-dodge" clip-path="url(#clip6_2933_1164)">
<g filter="url(#filter2_f_2933_1164)">
<path d="M1825.83 138.959C1852.79 138.959 1874.65 117.03 1874.65 89.9796C1874.65 62.9289 1852.79 41 1825.83 41C1798.86 41 1777 62.9289 1777 89.9796C1777 117.03 1798.86 138.959 1825.83 138.959Z" fill="url(#paint17_radial_2933_1164)"/>
</g>
</g>
<defs>
<filter id="filter0_f_2933_1164" x="95.2344" y="323" width="119.648" height="119.959" filterUnits="userSpaceOnUse" color-interpolation-filters="sRGB">
<feFlood flood-opacity="0" result="BackgroundImageFix"/>
<feBlend mode="normal" in="SourceGraphic" in2="BackgroundImageFix" result="shape"/>
<feGaussianBlur stdDeviation="5.5" result="effect1_foregroundBlur_2933_1164"/>
</filter>
<filter id="filter1_f_2933_1164" x="1620" y="117" width="119.648" height="119.959" filterUnits="userSpaceOnUse" color-interpolation-filters="sRGB">
<feFlood flood-opacity="0" result="BackgroundImageFix"/>
<feBlend mode="normal" in="SourceGraphic" in2="BackgroundImageFix" result="shape"/>
<feGaussianBlur stdDeviation="5.5" result="effect1_foregroundBlur_2933_1164"/>
</filter>
<filter id="filter2_f_2933_1164" x="1766" y="30" width="119.648" height="119.959" filterUnits="userSpaceOnUse" color-interpolation-filters="sRGB">
<feFlood flood-opacity="0" result="BackgroundImageFix"/>
<feBlend mode="normal" in="SourceGraphic" in2="BackgroundImageFix" result="shape"/>
<feGaussianBlur stdDeviation="5.5" result="effect1_foregroundBlur_2933_1164"/>
</filter>
<linearGradient id="paint0_linear_2933_1164" x1="1094" y1="34.5" x2="1094" y2="674.5" gradientUnits="userSpaceOnUse">
<stop stop-color="#2D2D2D"/>
<stop offset="1" stop-color="#2D2D2D" stop-opacity="0"/>
</linearGradient>
<linearGradient id="paint1_linear_2933_1164" x1="960" y1="34.5" x2="960.002" y2="674.5" gradientUnits="userSpaceOnUse">
<stop stop-color="#2D2D2D"/>
<stop offset="1" stop-color="#2D2D2D" stop-opacity="0"/>
</linearGradient>
<linearGradient id="paint2_linear_2933_1164" x1="420" y1="34.5" x2="420.002" y2="674.5" gradientUnits="userSpaceOnUse">
<stop stop-color="#2D2D2D"/>
<stop offset="1" stop-color="#2D2D2D" stop-opacity="0"/>
</linearGradient>
<linearGradient id="paint3_linear_2933_1164" x1="1240" y1="34.5" x2="1240" y2="674.5" gradientUnits="userSpaceOnUse">
<stop stop-color="#2D2D2D"/>
<stop offset="1" stop-color="#2D2D2D" stop-opacity="0"/>
</linearGradient>
<linearGradient id="paint4_linear_2933_1164" x1="1387" y1="34.5" x2="1387" y2="674.5" gradientUnits="userSpaceOnUse">
<stop stop-color="#2D2D2D"/>
<stop offset="1" stop-color="#2D2D2D" stop-opacity="0"/>
</linearGradient>
<linearGradient id="paint5_linear_2933_1164" x1="1533" y1="34.5" x2="1533" y2="674.5" gradientUnits="userSpaceOnUse">
<stop stop-color="#2D2D2D"/>
<stop offset="1" stop-color="#2D2D2D" stop-opacity="0"/>
</linearGradient>
<linearGradient id="paint6_linear_2933_1164" x1="155" y1="222.301" x2="155.001" y2="650.134" gradientUnits="userSpaceOnUse">
<stop stop-color="#2D2D2D"/>
<stop offset="1" stop-color="#2D2D2D" stop-opacity="0"/>
</linearGradient>
<linearGradient id="paint7_linear_2933_1164" x1="1680" y1="34.5" x2="1680" y2="674.5" gradientUnits="userSpaceOnUse">
<stop stop-color="#2D2D2D"/>
<stop offset="1" stop-color="#2D2D2D" stop-opacity="0"/>
</linearGradient>
<linearGradient id="paint8_linear_2933_1164" x1="1826" y1="-19.1576" x2="1826" y2="681.462" gradientUnits="userSpaceOnUse">
<stop stop-color="#2D2D2D"/>
<stop offset="1" stop-color="#2D2D2D" stop-opacity="0"/>
</linearGradient>
<linearGradient id="paint9_linear_2933_1164" x1="1533.5" y1="83" x2="1534" y2="587" gradientUnits="userSpaceOnUse">
<stop stop-color="#00422A" stop-opacity="0.42"/>
<stop offset="1" stop-color="#55E3BA" stop-opacity="0"/>
</linearGradient>
<linearGradient id="paint10_linear_2933_1164" x1="908.967" y1="106.977" x2="908.967" y2="567.499" gradientUnits="userSpaceOnUse">
<stop stop-color="#55E3BA"/>
<stop offset="1" stop-color="#55E3BA" stop-opacity="0"/>
</linearGradient>
<radialGradient id="paint11_radial_2933_1164" cx="0" cy="0" r="1" gradientUnits="userSpaceOnUse" gradientTransform="translate(960.828 110.982) scale(48.8279 48.9824)">
<stop stop-color="#CACACA"/>
<stop offset="0.0341" stop-color="#BCBCBC"/>
<stop offset="0.165" stop-color="#8A8A8A"/>
<stop offset="0.2991" stop-color="#606060"/>
<stop offset="0.4342" stop-color="#3D3D3D"/>
<stop offset="0.5707" stop-color="#222222"/>
<stop offset="0.7091" stop-color="#0F0F0F"/>
<stop offset="0.8507" stop-color="#040404"/>
<stop offset="1"/>
</radialGradient>
<radialGradient id="paint12_radial_2933_1164" cx="0" cy="0" r="1" gradientUnits="userSpaceOnUse" gradientTransform="translate(419.828 253.982) scale(48.8279 48.9824)">
<stop stop-color="#CACACA"/>
<stop offset="0.0341" stop-color="#BCBCBC"/>
<stop offset="0.165" stop-color="#8A8A8A"/>
<stop offset="0.2991" stop-color="#606060"/>
<stop offset="0.4342" stop-color="#3D3D3D"/>
<stop offset="0.5707" stop-color="#222222"/>
<stop offset="0.7091" stop-color="#0F0F0F"/>
<stop offset="0.8507" stop-color="#040404"/>
<stop offset="1"/>
</radialGradient>
<radialGradient id="paint13_radial_2933_1164" cx="0" cy="0" r="1" gradientUnits="userSpaceOnUse" gradientTransform="translate(1387.12 234.217) scale(48.8279 48.9824)">
<stop stop-color="#CACACA"/>
<stop offset="0.0341" stop-color="#BCBCBC"/>
<stop offset="0.165" stop-color="#8A8A8A"/>
<stop offset="0.2991" stop-color="#606060"/>
<stop offset="0.4342" stop-color="#3D3D3D"/>
<stop offset="0.5707" stop-color="#222222"/>
<stop offset="0.7091" stop-color="#0F0F0F"/>
<stop offset="0.8507" stop-color="#040404"/>
<stop offset="1"/>
</radialGradient>
<radialGradient id="paint14_radial_2933_1164" cx="0" cy="0" r="1" gradientUnits="userSpaceOnUse" gradientTransform="translate(1533.83 145.982) scale(48.8279 48.9824)">
<stop stop-color="#CACACA"/>
<stop offset="0.0341" stop-color="#BCBCBC"/>
<stop offset="0.165" stop-color="#8A8A8A"/>
<stop offset="0.2991" stop-color="#606060"/>
<stop offset="0.4342" stop-color="#3D3D3D"/>
<stop offset="0.5707" stop-color="#222222"/>
<stop offset="0.7091" stop-color="#0F0F0F"/>
<stop offset="0.8507" stop-color="#040404"/>
<stop offset="1"/>
</radialGradient>
<radialGradient id="paint15_radial_2933_1164" cx="0" cy="0" r="1" gradientUnits="userSpaceOnUse" gradientTransform="translate(155.062 382.982) scale(48.8279 48.9824)">
<stop stop-color="#CACACA"/>
<stop offset="0.0341" stop-color="#BCBCBC"/>
<stop offset="0.165" stop-color="#8A8A8A"/>
<stop offset="0.2991" stop-color="#606060"/>
<stop offset="0.4342" stop-color="#3D3D3D"/>
<stop offset="0.5707" stop-color="#222222"/>
<stop offset="0.7091" stop-color="#0F0F0F"/>
<stop offset="0.8507" stop-color="#040404"/>
<stop offset="1"/>
</radialGradient>
<radialGradient id="paint16_radial_2933_1164" cx="0" cy="0" r="1" gradientUnits="userSpaceOnUse" gradientTransform="translate(1679.83 176.982) scale(48.8279 48.9824)">
<stop stop-color="#CACACA"/>
<stop offset="0.0341" stop-color="#BCBCBC"/>
<stop offset="0.165" stop-color="#8A8A8A"/>
<stop offset="0.2991" stop-color="#606060"/>
<stop offset="0.4342" stop-color="#3D3D3D"/>
<stop offset="0.5707" stop-color="#222222"/>
<stop offset="0.7091" stop-color="#0F0F0F"/>
<stop offset="0.8507" stop-color="#040404"/>
<stop offset="1"/>
</radialGradient>
<radialGradient id="paint17_radial_2933_1164" cx="0" cy="0" r="1" gradientUnits="userSpaceOnUse" gradientTransform="translate(1825.83 89.9824) scale(48.8279 48.9824)">
<stop stop-color="#CACACA"/>
<stop offset="0.0341" stop-color="#BCBCBC"/>
<stop offset="0.165" stop-color="#8A8A8A"/>
<stop offset="0.2991" stop-color="#606060"/>
<stop offset="0.4342" stop-color="#3D3D3D"/>
<stop offset="0.5707" stop-color="#222222"/>
<stop offset="0.7091" stop-color="#0F0F0F"/>
<stop offset="0.8507" stop-color="#040404"/>
<stop offset="1"/>
</radialGradient>
<clipPath id="clip0_2933_1164">
<rect width="97.6502" height="97.9592" fill="white" transform="translate(912 62)"/>
</clipPath>
<clipPath id="clip1_2933_1164">
<rect width="97.6502" height="97.9592" fill="white" transform="translate(371 205)"/>
</clipPath>
<clipPath id="clip2_2933_1164">
<rect width="97.6502" height="97.9592" fill="white" transform="translate(1338.3 185.234)"/>
</clipPath>
<clipPath id="clip3_2933_1164">
<rect width="97.6502" height="97.9592" fill="white" transform="translate(1484.77 97.4795)"/>
</clipPath>
<clipPath id="clip4_2933_1164">
<rect width="97.6502" height="97.9592" fill="white" transform="translate(106 326)"/>
</clipPath>
<clipPath id="clip5_2933_1164">
<rect width="97.6502" height="97.9592" fill="white" transform="translate(1631.24 121.847)"/>
</clipPath>
<clipPath id="clip6_2933_1164">
<rect width="97" height="114" fill="white" transform="translate(1778 47)"/>
</clipPath>
</defs>
</svg>
