<svg width="80" height="81" viewBox="0 0 80 81" fill="none" xmlns="http://www.w3.org/2000/svg">
<path d="M39.2179 1.41526C39.6182 0.912767 40.3818 0.912768 40.7821 1.41526L43.7545 5.14597C44.0923 5.57 44.7065 5.64759 45.1392 5.3209L48.9459 2.44659C49.4587 2.05944 50.1982 2.24933 50.461 2.83559L52.4122 7.18829C52.634 7.68302 53.2096 7.91091 53.7099 7.70209L58.1119 5.86478C58.7048 5.61731 59.3739 5.98515 59.4826 6.61835L60.29 11.3195C60.3818 11.8539 60.8826 12.2178 61.4192 12.1399L66.1397 11.4551C66.7756 11.3628 67.3322 11.8855 67.28 12.5258L66.8929 17.2801C66.8489 17.8205 67.2435 18.2975 67.7826 18.3555L72.5252 18.8662C73.164 18.9349 73.5731 19.5796 73.3633 20.1869L71.8061 24.6955C71.6291 25.208 71.8927 25.7681 72.4003 25.9584L76.867 27.6324C77.4686 27.8579 77.7045 28.5841 77.3503 29.1201L74.7207 33.0998C74.4218 33.5522 74.5378 34.1603 74.9822 34.4708L78.8922 37.203C79.4189 37.571 79.4668 38.3331 78.9904 38.7642L75.4537 41.9649C75.0518 42.3287 75.0129 42.9466 75.3661 43.3579L78.4738 46.9766C78.8923 47.4641 78.7493 48.2141 78.1807 48.5132L73.9591 50.7338C73.4792 50.9862 73.2879 51.575 73.5278 52.0612L75.6379 56.3391C75.9221 56.9153 75.597 57.6062 74.9718 57.7545L70.3306 58.8555C69.8031 58.9806 69.4714 59.5033 69.5828 60.0339L70.5627 64.7022C70.6947 65.331 70.208 65.9193 69.5656 65.9074L64.7964 65.8196C64.2543 65.8097 63.803 66.2334 63.779 66.7751L63.5671 71.5404C63.5386 72.1822 62.9209 72.631 62.3017 72.4598L57.7041 71.1887C57.1816 71.0442 56.6391 71.3425 56.4811 71.8611L55.0908 76.424C54.9035 77.0386 54.1936 77.3197 53.6364 76.9998L49.4994 74.6253C49.0292 74.3554 48.4296 74.5094 48.1476 74.9724L45.6662 79.0462C45.332 79.5949 44.5745 79.6906 44.1143 79.2423L40.6978 75.9135C40.3095 75.5352 39.6905 75.5352 39.3022 75.9135L35.8857 79.2423C35.4255 79.6906 34.668 79.5949 34.3338 79.0462L31.8524 74.9724C31.5704 74.5094 30.9708 74.3554 30.5006 74.6253L26.3636 76.9998C25.8064 77.3197 25.0965 77.0386 24.9092 76.424L23.5189 71.8611C23.3609 71.3425 22.8184 71.0442 22.2959 71.1887L17.6983 72.4598C17.0791 72.631 16.4614 72.1822 16.4329 71.5404L16.221 66.7751C16.197 66.2334 15.7457 65.8097 15.2036 65.8196L10.4344 65.9074C9.79203 65.9193 9.30533 65.331 9.43732 64.7022L10.4172 60.0339C10.5286 59.5033 10.1969 58.9806 9.66938 58.8555L5.02816 57.7545C4.40304 57.6062 4.07794 56.9153 4.36215 56.3391L6.47223 52.0612C6.71206 51.575 6.52075 50.9862 6.04093 50.7338L1.81934 48.5132C1.25073 48.2141 1.10766 47.4641 1.52623 46.9766L4.6339 43.3579C4.98711 42.9466 4.94824 42.3287 4.54626 41.9649L1.00955 38.7642C0.533186 38.3331 0.58113 37.571 1.10777 37.203L5.01775 34.4708C5.46216 34.1603 5.57816 33.5522 5.27928 33.0998L2.64967 29.1201C2.29549 28.5841 2.53144 27.8579 3.13305 27.6324L7.59967 25.9584C8.10734 25.7681 8.37093 25.208 8.19393 24.6955L6.63665 20.1869C6.4269 19.5796 6.83603 18.9349 7.47481 18.8662L12.2174 18.3555C12.7565 18.2975 13.1511 17.8205 13.1071 17.2801L12.72 12.5258C12.6678 11.8855 13.2244 11.3628 13.8603 11.4551L18.5808 12.1399C19.1174 12.2178 19.6182 11.8539 19.71 11.3195L20.5174 6.61835C20.6261 5.98515 21.2952 5.61731 21.8881 5.86478L26.2901 7.70209C26.7904 7.91091 27.366 7.68302 27.5878 7.18829L29.539 2.83559C29.8018 2.24933 30.5413 2.05944 31.0541 2.44659L34.8608 5.3209C35.2935 5.64759 35.9077 5.57 36.2455 5.14597L39.2179 1.41526Z" fill="#1C1C1C"/>
<path d="M39.6089 1.72682C39.8091 1.47558 40.1909 1.47558 40.3911 1.72682L43.3634 5.45754C43.8702 6.09358 44.7914 6.20996 45.4404 5.71993L49.2472 2.84561C49.5036 2.65204 49.8734 2.74699 50.0048 3.04012L51.9559 7.39282C52.2886 8.1349 53.152 8.47675 53.9025 8.16351L58.3044 6.3262C58.6009 6.20247 58.9354 6.38638 58.9898 6.70299L59.7972 11.4042C59.9349 12.2057 60.6861 12.7515 61.4909 12.6347L66.2115 11.9499C66.5294 11.9038 66.8077 12.1651 66.7817 12.4853L66.3946 17.2396C66.3286 18.0501 66.9205 18.7656 67.729 18.8527L72.4717 19.3633C72.7911 19.3977 72.9956 19.72 72.8907 20.0237L71.3335 24.5323C71.068 25.301 71.4634 26.1412 72.2249 26.4266L76.6915 28.1006C76.9923 28.2134 77.1103 28.5765 76.9332 28.8445L74.3036 32.8242C73.8552 33.5027 74.0292 34.4148 74.6959 34.8807L78.6058 37.6129C78.8692 37.7969 78.8931 38.1779 78.6549 38.3935L75.1182 41.5942C74.5153 42.1399 74.457 43.0667 74.9868 43.6836L78.0944 47.3024C78.3037 47.5461 78.2322 47.9211 77.9479 48.0706L73.7263 50.2913C73.0066 50.6699 72.7196 51.553 73.0794 52.2824L75.1894 56.5603C75.3315 56.8484 75.169 57.1938 74.8564 57.268L70.2152 58.369C69.4239 58.5567 68.9264 59.3407 69.0934 60.1366L70.0733 64.8049C70.1393 65.1193 69.896 65.4135 69.5748 65.4075L64.8056 65.3197C63.9925 65.3048 63.3156 65.9404 63.2795 66.7529L63.0676 71.5182C63.0534 71.8391 62.7445 72.0635 62.4349 71.9779L57.8374 70.7068C57.0535 70.4901 56.2398 70.9374 56.0028 71.7154L54.6125 76.2783C54.5189 76.5856 54.1639 76.7261 53.8853 76.5662L49.7483 74.1917C49.043 73.7868 48.1436 74.0178 47.7205 74.7123L45.2392 78.7861C45.0721 79.0605 44.6934 79.1083 44.4633 78.8842L41.0468 75.5554C40.4643 74.9879 39.5357 74.9879 38.9532 75.5554L35.5367 78.8842C35.3066 79.1083 34.9279 79.0605 34.7608 78.7861L32.2794 74.7123C31.8564 74.0178 30.957 73.7868 30.2517 74.1917L26.1147 76.5662C25.8361 76.7261 25.4811 76.5856 25.3875 76.2783L23.9972 71.7154C23.7602 70.9374 22.9465 70.4901 22.1626 70.7068L17.5651 71.9779C17.2555 72.0635 16.9466 71.8391 16.9324 71.5182L16.7205 66.7529C16.6844 65.9404 16.0075 65.3048 15.1944 65.3197L10.4252 65.4075C10.104 65.4135 9.86066 65.1193 9.92665 64.8049L10.9066 60.1366C11.0736 59.3407 10.5761 58.5567 9.78479 58.369L5.14357 57.268C4.83101 57.1938 4.66846 56.8484 4.81056 56.5603L6.92065 52.2824C7.28039 51.553 6.99343 50.6699 6.2737 50.2913L2.05211 48.0707C1.76781 47.9211 1.69627 47.5461 1.90556 47.3024L5.01322 43.6836C5.54304 43.0667 5.48474 42.1399 4.88177 41.5942L1.34505 38.3935C1.10687 38.1779 1.13085 37.7969 1.39416 37.6129L5.30415 34.8807C5.97076 34.4148 6.14476 33.5027 5.69644 32.8242L3.06683 28.8445C2.88974 28.5764 3.00771 28.2134 3.30852 28.1006L7.77514 26.4266C8.53665 26.1412 8.93203 25.301 8.66653 24.5323L7.10925 20.0237C7.00438 19.72 7.20894 19.3977 7.52833 19.3633L12.2709 18.8527C13.0795 18.7656 13.6714 18.0501 13.6054 17.2396L13.2183 12.4853C13.1923 12.1651 13.4706 11.9038 13.7885 11.9499L18.5091 12.6347C19.3139 12.7515 20.0651 12.2057 20.2028 11.4042L21.0102 6.70299C21.0646 6.38638 21.3991 6.20246 21.6956 6.3262L26.0975 8.16351C26.848 8.47675 27.7114 8.1349 28.0441 7.39282L29.9952 3.04012C30.1266 2.74699 30.4964 2.65204 30.7528 2.84562L34.5596 5.71993C35.2086 6.20996 36.1298 6.09358 36.6366 5.45753L39.6089 1.72682Z" stroke="white" stroke-opacity="0.7"/>
<g clip-path="url(#clip0_2447_1432)">
<path d="M47.4102 55.1852C46.918 55.1852 46.4293 55.0637 45.9943 54.8301L39.9476 51.5752L33.9028 54.8292C32.9228 55.3518 31.6944 55.2812 30.7922 54.6626C29.8653 54.0234 29.3869 52.9058 29.5723 51.8141L30.7564 44.7397L25.6465 39.6369C24.8612 38.8552 24.5955 37.7216 24.9537 36.6786C25.3101 35.645 26.212 34.9017 27.3081 34.7391L34.2592 33.706L37.2783 27.4378C37.7647 26.4301 38.8126 25.7793 39.9476 25.7793C41.0835 25.7793 42.1314 26.4305 42.6165 27.4378L45.6365 33.706L52.5867 34.7396C53.682 34.9017 54.5851 35.6441 54.9416 36.6772C55.2994 37.7225 55.034 38.8557 54.2497 39.6374L49.1375 44.7397L50.323 51.815C50.5065 52.9067 50.0282 54.0243 49.104 54.6617C48.6019 55.0043 48.0168 55.1852 47.4102 55.1852ZM39.9476 49.6665C40.0932 49.6665 40.2389 49.7023 40.3711 49.7728L46.8389 53.2546C47.2271 53.4632 47.7278 53.4369 48.0932 53.1876C48.451 52.9415 48.631 52.5279 48.5608 52.1107L47.2994 44.5807C47.2525 44.2953 47.3454 44.0049 47.55 43.8008L52.9878 38.3724C53.2849 38.0762 53.3863 37.6492 53.2518 37.2579C53.1142 36.8599 52.7587 36.5709 52.3245 36.5066L44.9062 35.4033C44.6136 35.36 44.3603 35.1742 44.2321 34.9075L41.0062 28.2132C40.8169 27.8197 40.4014 27.566 39.9476 27.566C39.4938 27.566 39.078 27.8201 38.8872 28.2137L35.6636 34.9075C35.5354 35.1742 35.2826 35.36 34.99 35.4033L27.5707 36.5066C27.1428 36.5705 26.7792 36.8657 26.643 37.2602C26.509 37.6501 26.6108 38.0762 26.9079 38.3719L32.3448 43.8008C32.5494 44.0049 32.6423 44.2953 32.5949 44.5807L31.3344 52.1103C31.2638 52.5284 31.4439 52.9406 31.8048 53.1894C32.1639 53.4356 32.6637 53.465 33.0595 53.2542L39.5246 49.7733C39.6564 49.7027 39.802 49.6665 39.9476 49.6665Z" fill="white"/>
<path d="M30.1571 38.749C29.9423 38.749 29.7525 38.5931 29.7167 38.3738C29.6774 38.1304 29.8427 37.9008 30.0861 37.8615L30.3827 37.8132C30.6275 37.7713 30.8557 37.9392 30.895 38.1826C30.9344 38.4261 30.7691 38.6557 30.5256 38.695L30.2291 38.7432C30.2054 38.7472 30.1808 38.749 30.1571 38.749ZM31.7973 38.4828C31.5874 38.4828 31.4002 38.3345 31.3596 38.1205C31.3127 37.8785 31.4713 37.6439 31.7134 37.5975L36.5477 36.6648L38.371 32.4831C38.4702 32.2575 38.7337 32.1534 38.9588 32.2522C39.1853 32.3509 39.2889 32.614 39.1902 32.84L37.2727 37.2375C37.2137 37.3724 37.0922 37.4697 36.9475 37.4974L31.8822 38.4748C31.8536 38.4806 31.8255 38.4828 31.7973 38.4828Z" fill="white"/>
</g>
<defs>
<clipPath id="clip0_2447_1432">
<rect width="30.3996" height="30.3996" fill="white" transform="translate(24.7969 25.2344)"/>
</clipPath>
</defs>
</svg>
